<?xml version="1.0" encoding="utf-8"?>
<!-- Generator: Adobe Illustrator 27.8.1, SVG Export Plug-In . SVG Version: 6.00 Build 0)  -->
<svg version="1.1" xmlns="http://www.w3.org/2000/svg" xmlns:xlink="http://www.w3.org/1999/xlink" x="0px" y="0px"
	 viewBox="0 0 1000 1000" style="enable-background:new 0 0 1000 1000;" xml:space="preserve">
<style type="text/css">
	.st0{fill:#2E2F2D;}
	.st1{fill:none;stroke:#2E2F2D;stroke-miterlimit:10;}
	.st2{fill:#70A0AF;}
	.st3{fill:none;stroke:#2E2F2D;stroke-width:2;stroke-linecap:round;stroke-miterlimit:10;}
	.st4{fill:none;stroke:#2E2F2D;stroke-width:0.5;stroke-miterlimit:10;}
	.st5{fill:none;stroke:#2E2F2D;stroke-width:0.5562;stroke-linecap:round;stroke-miterlimit:10;stroke-dasharray:1.3304,2.6601;}
</style>
<g id="BACKGROUND">
</g>
<g id="OBJECTS">
	<g>
		<g>
			<path class="st0" d="M261.97,959.29c-66.14-0.17-132.26-1.75-198.4-1.92c66.14-0.16,132.27,1.08,198.4,0.92V959.29L261.97,959.29
				z"/>
		</g>
		<g>
			<g>
				<path class="st0" d="M406.34,484.63c8.9-21.35,10.78-38.83,9.5-62.24c-15.71-3.95-19.41-12.56-17.65-29.47
					c1.18-11.34,5.23-24.07,8.51-34.83c4.2-13.77,1.45-24,0.13-38.24c-1.38-14.96-1.75-33.03,4.44-46.44
					c6.62-14.34,15.26-25.35,18.29-40.26c-0.46,0.06-0.93,0.13-1.39,0.19C276.54,263.64,235.16,518,376.15,579.22
					c2.3-9.71,5.22-19.36,7.58-29.09C389.09,527.99,397.41,506.04,406.34,484.63z"/>
				<path class="st0" d="M688.54,398.61c0.13-53.22-24.48-98.4-65.61-133.52c-19.86-16.96-42.12-26.97-65.48-32.45
					c2.98,12.68,6.27,25.06,8.49,37.97c2.49,14.51,4.78,29.03,7.16,43.38c0.7,4.2,0.69,9.1,2.24,13.1c1.23,3.19,3.14,6.22,4.53,9.42
					c2.05,4.71,3.34,9.66,5.52,14.25c2.46,5.16,6.42,9.44,8.9,14.59c0.81,1.68,1.75,3.64,1.88,5.54c0.11,1.65-1.04,3.21-0.85,4.73
					c0.39,3.21,4.86,4.85,5.75,8.47c1.6,6.51-4.97,12.38-3.9,18.29c1.48,8.16,7.28,16.32,10.51,23.78
					c2.8,6.47,3.79,13.67,6.57,20.03c2.96,6.75,6.09,13.31,8.42,20.4c3.37,10.23,6.24,21.51,12.11,31.38
					c2.68,4.5,5.51,8.95,8.42,13.31c0.99,1.47,2.3,2.68,3.25,4.15c1.07,1.65,1.17,4.11,2.76,5.43c1.12,0.93,4.73,1.27,6.2,1.31
					c3.55-7.44,9.59-13.91,13.45-21.32C685.44,468.98,688.45,434.04,688.54,398.61z"/>
				<path class="st0" d="M616.6,553.26c-2.21-7.9-8.62-12.13-8.72-20.93c-0.11-10.04,1.51-20.54,0.1-30.45
					c-1.25-8.78-6.15-14.69-9.48-22.44c-2.44-5.68-5.9-9.87-9.51-14.93c-4.74-6.66-8.65-13.92-13.14-20.72
					c-4.46-6.76-7.22-13.94-9.17-21.73c-0.53-2.13-0.66-4.37-1.29-6.47c-0.46-1.55-0.23-3.52-0.92-4.96
					c-0.59-1.23-2.73-0.97-3.76-1.63c-1.19-0.77-2.39-2.21-3.3-3.29c-2.14-2.54-3.62-5.61-4.48-8.81
					c-1.28-4.76-0.28-11.19-3.79-15.14c0,0-6.27-7.05-6.27-7.05c-2.79,13.01,3.47,26.6,1.97,39.75
					c-1.3,11.42-9.18,10.36-18.37,10.82c1.68,5.37,5.37,10.97,7.38,16.56c2.6,7.25,5.58,14.42,8.41,21.52
					c6.3,15.81,9.12,33.4,10.51,50.35c1.66,20.28,1.46,40.61,1.46,60.99c0,2.9-0.36,6.17,0.37,8.98
					c22.31-6.07,43.43-14.86,61.96-26.81C616.89,555.79,616.98,554.62,616.6,553.26z"/>
			</g>
			<path class="st1" d="M396.18,954.34c32.22-1.86,62.57-14.54,94.57-11c-5.01,1.18-9.64,4.01-13.28,7.92
				c27.14-3.91,53.36-7.31,80.71-8.13c-4.96,4.09-10.67,8.65-15.54,12.48c33.89-4.75,85.02-7.77,119.35-1.79"/>
			<g>
				<path class="st0" d="M718.23,960.22c49.89-9.35,101.02-2.88,151.3-1.49c0,0,10.1,0.21,10.1,0.21s-10.11,0.03-10.11,0.03
					C819.2,958.66,768.25,952.12,718.23,960.22L718.23,960.22z"/>
			</g>
			<path class="st2" d="M416.78,427.17c0.68,29.21-10.59,61.13-20.78,88.07c-10.08,26.64-17.62,55.61-21.71,83.8
				c-4.8,33.17-12.48,65.58-14.71,99.1c-2.55,38.49-2.67,76.84-4.29,115.38c-1,23.86-3.08,48.65-1.84,72.47
				c12.42,2.58,25.79,3.32,38.14,6.09c12.08-51.29,12.61-103.65,16.39-155.97c2.75-38.04,22.5-69.89,35.45-105.3
				c5.28-14.45,10.52-31.6,14.8-44.8c4.85,19.91,8.49,39.71,14.36,59.43c6.57,22.11,12.2,44.47,17.99,66.83
				c8.4,32.45,25.41,55.76,47.76,80c23.26,25.23,52.34,43.08,78.4,65.11c9.08,7.67,17.68,16.04,26.38,24.04
				c4.63,4.26,14.69,16.5,20.99,15.51c1.63-0.26,5.25-4.54,6.52-5.62c6.41-5.4,15.1-10.55,19.7-17.76
				c4.99-7.82,0.85-12.28-4.87-19.34c-12.64-15.58-28.79-28.91-42.61-43.49c-5.57-5.88-10.93-11.74-16.61-17.41
				c-15.3-15.28-34.63-28.02-48.07-44.81c-3.63-4.53-3.12-4.54-4.87-9.72c-2.93-8.69-8.63-14.58-12.25-22.57
				c-8.34-18.39-4.83-47.49-6.21-67.41c-3.07-44.25,1.23-88.5-0.96-132.73c-1.27-25.62-8.5-48.39-21.09-70.8
				c-2.27-4.04-3.79-11.94-6.36-14.94c-4.94-5.77-15.41,0.85-24.14,0.6c-9.26-0.26-19.11-4.33-27.69-4.54
				c-9.95-0.25-19.9-1.69-29.62-1.56L416.78,427.17z"/>
			<g>
				<g>
					<g>
						<path class="st0" d="M428.34,54.78c-2.39,9.94-6.17,19.54-11.01,28.55c-2.72,5.67-7.31,10.5-9.26,16.49
							c-1.29,4.57,3.9,5.25,7.25,5.17c0,0,0.01,0.57,0.01,0.57c-0.47,1.92-0.22,4.37-0.15,6.47c0.54,8.04,1.75,16.09,2.88,24.07
							c0.52,6.44,0.49,10.96,7.82,12.72c11.02,2.18,23.23,0.34,32.46-6.28c7.52-5.12,13.32-13.08,19.52-19.42
							c-8.33,10.88-17.37,23.11-31.37,26.63c-4.55,1.21-9.27,1.58-13.96,1.42c-3.52-0.15-7.19-0.6-10.39-2.27
							c-4.96-2.32-4.9-8.01-5.13-12.68c-0.82-8.03-1.73-16.11-2.29-24.16c-0.08-2.18-0.44-4.44,0.06-6.59
							c0.06-0.13,0.13-0.42,0.54-0.48c0,0,0.01,0.57,0.01,0.57c-3.97,0.21-9.43-0.61-8.24-5.95c0.88-3.84,3.25-7.09,5.25-10.35
							c1.32-2.16,2.62-4.34,3.86-6.55c2.47-4.43,4.64-9.02,6.67-13.68c2-4.67,3.75-9.45,5.33-14.29
							C428.19,54.74,428.34,54.78,428.34,54.78L428.34,54.78z"/>
					</g>
					<g>
						<path class="st0" d="M430.07,41.8c4.4-9.85,12.61-17.54,21.89-22.81c11.57-6.81,25.85-9.38,38.96-6.11
							c7.86,2.2,14.63,7.31,20.22,13.11c7.37,7.8,13.43,17.35,15.21,28.09c0,0-0.35-0.4-0.35-0.4c3.17,0.98,6.16,2.65,8.52,5
							c11.13,11.57,9.11,32.24,7.3,46.96c-1.4,9.61-4,19.51-10.11,27.3c-6.09,7.83-15.62,12.88-25.6,13.05
							c-6.6,0.16-13.46-1.7-18.62-5.93c-4.7-4.03-10.56-10.18-9.69-16.91c0,0,0.09-0.48,0.09-0.48c4.22-0.91,8.5-1.35,12.49-2.93
							c6.35-2.46,10.4-8.84,10.75-15.53c0.18-2.97-0.22-6.05-1.88-8.49c-1.87-2.87-5.76-4.64-8.98-2.94
							c-3.76,2.01-5.96,6.05-7.74,9.84c-2.02-0.87-3.79-2.23-5.27-3.74c-3.91-3.98-6.74-8.86-9.66-13.52
							c-1.01-1.58-1.79-3.36-2.24-5.19c-1.36-5.31-0.38-11.16-2.84-16.11c-3.3-6.74-11.22-9.12-17.97-11
							C438.41,51.33,425.91,51.59,430.07,41.8L430.07,41.8z M430.21,41.86c-4.04,9.62,8.39,9.21,14.42,10.88
							c3.54,0.94,7.12,1.9,10.45,3.54c5.15,2.31,9.07,7.08,9.82,12.78c0.86,5.32,0.51,11.05,3.73,15.65
							c3.95,5.85,7.46,12.8,13.86,16.23c0,0-0.99,0.37-0.99,0.37c2.78-6.41,9.34-14.45,16.72-8.88c3.69,2.64,4.79,7.65,4.49,11.9
							c-0.34,5.77-3.1,11.48-7.92,14.79c-4.7,3.32-10.67,3.8-16.11,4.9c0,0,0.57-0.58,0.57-0.58c-0.54,3.01,1.03,6.07,2.65,8.57
							c9.51,14.46,28.36,16.68,42.2,7.02c10.92-7.51,15.48-20.82,17.24-33.45c2.28-16.66,4.44-45.15-15.89-51.04
							c-1.83-10.53-7.97-19.97-15.24-27.64c-5.53-5.6-11.98-10.63-19.6-12.86c-12.83-3.3-26.91-1.14-38.41,5.37
							C442.84,24.43,434.66,32.12,430.21,41.86L430.21,41.86z"/>
					</g>
					<g>
						<path class="st0" d="M512.8,28.39c-2.67-6.02,2.76-16.87,9.99-11.68c0,0-0.8,0.25-0.8,0.25c2.44-7.57,10.38-15.51,17.25-7.29
							c0,0-1.15,0.35-1.15,0.35c0.2-1.4,0.81-2.85,1.94-3.82c2.18-1.94,5.27-2.06,7.96-1.56c6.72,1.21,11.68,6.69,14.85,12.4
							c5.47,10.03,1.25,21.84-8.16,27.74c0,0,0.05-0.89,0.05-0.89c3.82,2.59,9.19,1.44,13.06-0.55c1.33-0.73,2.57-1.67,3.38-2.85
							c0,0,1.53-2.24,1.53-2.24s-0.21,2.71-0.21,2.71c-0.28,4.8-2.85,9.69-7.25,11.94c-4.3,2.3-9.41,2.39-14.04,1.27
							c0,0,0.82-1.15,0.82-1.15c2.92,4.37,8.13,6.84,13.2,7.8c0,0-0.68,0.78-0.68,0.78c-5.13,5.8-20.67,9.86-25.86,2.6
							c0,0,0.12-0.09,0.12-0.09c5.26,6.64,20,2.16,24.75-3.3c0,0,0.37,1.01,0.37,1.01c-5.11-1.04-10.19-3.51-13.18-7.98
							c0,0-1.05-1.6-1.05-1.6s1.87,0.45,1.87,0.45c9.06,2.35,18.78-1.61,19.49-11.84c0,0,1.32,0.47,1.32,0.47
							c-3.85,5.08-13.89,7.42-18.92,2.95c13.13-7.51,15.13-22.56,4.31-33.19c-3.52-3.6-8.56-6.18-13.66-5.38
							c-2.43,0.34-4.45,1.99-4.69,4.5c0,0-0.19,1.4-0.19,1.4c-6.7-8.67-13.18-1.93-16.23,5.72c0,0-0.25,0.66-0.25,0.66l-0.55-0.41
							c-4.66-3.72-8.84,1.39-9.52,5.99c-0.27,1.58-0.24,3.25,0.29,4.79L512.8,28.39L512.8,28.39z"/>
					</g>
					<g>
						<path class="st0" d="M449.22,148.2c7.58,11.02,7.2,25.58,7.17,38.4c-0.45-12.53-0.61-27.05-8.35-37.48
							C448.03,149.12,449.22,148.2,449.22,148.2L449.22,148.2z"/>
					</g>
					<g>
						<path class="st0" d="M497.66,143.91c-0.21,4.92-1.42,9.87,0.11,14.66c-1.05-2.25-1.31-4.8-1.44-7.27
							c-0.13-2.48-0.05-4.97-0.17-7.39L497.66,143.91L497.66,143.91z"/>
					</g>
					<g>
						<path class="st0" d="M496.05,158.3c2.8-1.73,5.68-3.36,8.6-4.89c0,0,0.08-0.04,0.08-0.04s0.07,0.06,0.07,0.06
							c6.53,6.18,13.43,19.33,7.02,27.57c-2.01,2.75-4.74,4.89-7.07,7.28c-6.23,6.45-13.14,12.23-20.1,17.85
							c-10.17,8.12-20.96,17.73-32.69,23.53c0,0-0.32,0.16-0.32,0.16s-0.26-0.27-0.26-0.27c-6.78-7.22-11.68-15.97-15.26-25.16
							c5.25-3.71,10.31-7.69,15.3-11.77C465.81,180.62,479.98,168.09,496.05,158.3L496.05,158.3z M496.13,158.43
							c-16.01,9.94-29.19,23.54-43.73,35.41c-4.82,4.01-9.76,7.9-14.95,11.46c0,0,0.27-0.87,0.27-0.87
							c1.63,4.44,3.76,8.73,6.13,12.85c2.38,4.1,5.06,8.08,8.26,11.59c0,0-0.59-0.11-0.59-0.11c12.17-5.62,22.51-14.53,32.75-23.07
							c9.31-7.95,18.2-16.5,26.52-25.44c6.08-7.63-0.15-20.62-6.18-26.61c0,0,0.15,0.02,0.15,0.02
							C501.82,155.1,498.94,156.72,496.13,158.43L496.13,158.43z"/>
					</g>
					<g>
						<path class="st0" d="M456.87,181.05c-7,7.06-26.37,13.35-28.01,23.52c-0.1,2.24,0.59,4.46,0.89,6.7c0,0,0.48,3.41,0.48,3.41
							c0.63,4.56,1.2,9.2,0.71,13.82c-0.8,6.92-3.61,13.42-6.42,19.71c-7.62,16.38-18.49,32.34-17.87,51.08
							c0.11,9.12,1.87,18.19,2.21,27.36c0.56,8.11,1.4,19.48,0.71,27.48c-1.37,18.11-4.29,36.65,0.06,54.54
							c4.29,16.73,16.03,19.02,31.44,16.64c4.52-0.79,9.3-1.17,13.85-0.69c4.62,0.4,9.13,1.3,13.63,1.74
							c6.68,0.53,13.9-0.68,20.61,0.93c6.7,1.25,13.42,3.02,20.21,3.22c6.5,0.14,13.86-1.53,17.88-7.04
							c3.83-5.73,2.87-13.1,1.57-19.57c-1.05-6.83-4.79-13.1-4.8-20.05c0.58-6.94,4.16-13.27,8.16-18.79c0,0,0.12,0.09,0.12,0.09
							c-3.81,5.55-7.23,11.91-7.64,18.72c0.18,6.86,3.93,13.1,5.06,19.83c1.44,6.62,2.48,14.39-1.5,20.42
							c-4.19,5.94-11.96,7.87-18.87,7.8c-9.22-0.04-18.03-3.45-27.16-3.97c-4.5-0.17-9.09,0.39-13.78-0.04
							c-4.62-0.44-9.12-1.32-13.63-1.75c-4.57-0.52-8.96-0.11-13.51,0.61c-25.37,4.01-33.34-7.67-34.64-31.52
							c-1.27-18.37,3.49-36.53,2.61-54.87c0,0-0.89-13.71-0.89-13.71c-1.35-21.3-6.24-33.09,2.99-54.29
							c3.61-8.48,8.12-16.49,11.99-24.75c3.77-8.18,7.4-16.85,6.53-26.04c-0.36-4.47-0.93-9.14-1.69-13.58
							c-0.43-2.29-0.5-4.93,0.88-6.97c1.29-1.97,2.9-3.68,4.65-5.19C440.83,189.99,449.94,186.55,456.87,181.05L456.87,181.05z"/>
					</g>
					<g>
						<path class="st0" d="M512.96,179.18c11.89,7.07,23.29,15.53,31.78,26.61c8.35,11.24,12.79,24.84,15.94,38.32
							c3.97,18.08,6.51,36.38,9.89,54.55c2.4,13.64,5.67,27.12,10.53,40.11c1.52,4.39,2.16,9.05,4.31,13.09
							c1.12,1.98,2.73,3.68,4.19,5.42c5.73,6.07,8.07,10.69,5.32,19.06c0,0-0.17-0.45-0.17-0.45c7.58,4.82,8.5,16.75,2.82,23.37
							c-4.13,4.77-10.42,6.85-16.09,8.86c-9.72,3.51-20.71,5.37-27.07-4.92c-2.08-3.22-2.82-7.05-3.05-10.79
							c-0.17-2.33-0.2-4.74-1.37-6.77c-1.91-3.06-4.79-5.72-6.14-9.18c-1.82-4.66-1.36-9.62-4.23-13.79
							c-1.86-3.07-4.4-5.91-6.09-9.19c-2.57-5.58-4.96-11.16-7.28-16.84c0,0-11.09-27.1-11.09-27.1c-3.68-9-7.75-18.02-9.49-27.72
							c-0.86-4.79-1.84-9.59-2.4-14.45c-0.49-4.83-0.96-9.89,0.68-14.56c0,0,0.14,0.05,0.14,0.05c-1.51,4.65-0.93,9.67-0.34,14.44
							c0.67,4.82,1.75,9.57,2.66,14.38c1.83,9.56,5.97,18.46,9.77,27.43c0,0,11.41,26.95,11.41,26.95
							c2.19,5.19,4.91,11.6,7.29,16.71c1.69,3.25,4.11,5.91,6.05,9.08c2.9,4.08,2.68,9.57,4.37,13.99c1.4,3.42,4.13,5.85,6.04,9.01
							c1.31,2.26,1.38,4.96,1.53,7.43c0.2,3.53,0.85,7.12,2.77,10.12c5.85,9.66,16.28,7.64,25.42,4.5
							c6.68-2.3,14.26-4.63,17.65-11.28c3.06-6.19,1.7-15.23-4.37-19.1c0,0-0.26-0.16-0.26-0.16l0.09-0.29
							c1.43-4.27,1.85-9.16-0.79-13.03c-2.44-3.85-6.07-6.89-8.47-10.95c-2.2-4.19-2.74-8.88-4.27-13.2
							c-4.92-12.98-8.32-26.48-10.97-40.09c-3.67-18.1-6.45-36.39-10.29-54.44c-3.03-13.4-7.39-26.79-15.46-38.03
							C535.81,195.21,524.08,186.69,512.96,179.18L512.96,179.18z"/>
					</g>
					<g>
						<path class="st0" d="M526.57,424.1c1.2,4.36,5.1,10.37,7.31,14.4c2.23,3.8,4.71,10.68,6.53,14.84c2.03,5,4.22,9.94,6.07,15.04
							c3.68,10.18,6.21,20.8,7.31,31.58c0.49,5.39,0.85,10.78,1.12,16.18c1.81,37.8-1.48,75.6-1.07,113.39
							c0.61,26.9,1.99,54.04,7.62,80.4c1.9,7.73,3.86,15.82,8.62,22.32c1.51,2.46,4.27,2.8,6.53,4.4c0.56,0.46,1.24,0.98,1.49,1.69
							c0.67,1.94-1.38,4.12,0.48,5.53c0.94,0.83,2.24,1.3,3.39,2.15c1.09,0.91,2.03,1.82,3.04,2.74c3.94,3.71,7.73,7.57,11.49,11.45
							c7.52,7.76,14.84,15.71,22.48,23.33c7.84,7.45,14.6,15.94,21.59,24.17c14.74,17.63,32.76,32.2,47.2,50.11
							c0.42,0.53,0.86,1.04,1.26,1.59c0,0,0.58,0.86,0.58,0.86s0.29,0.43,0.29,0.43s0.23,0.47,0.23,0.47s0.45,0.95,0.45,0.95
							c0.11,0.33,0.2,0.67,0.3,1.01c0,0,0.14,0.51,0.14,0.51s0.06,0.52,0.06,0.52c0.03,0.35,0.11,0.7,0.11,1.05
							c-0.17,7.1-6.08,12.18-10.39,17.18c-5.89,6.43-12.85,11.54-21.69,7.05c-2.49-1.18-4.74-2.78-6.92-4.35
							c-17.67-12.42-34.91-25.72-49.83-41.41c-7.64-7.62-15.36-15.17-23.4-22.35c-16.09-14.33-33.98-26.67-49.46-41.9
							c-7.78-7.55-15.05-15.86-19.99-25.59c-5.05-9.66-8.41-20.01-12.02-30.17c-7.06-20.44-16.72-39.84-23.52-60.39
							c-8.18-25.79-12.48-52.55-20.29-78.44c-4.02-15.02-8.5-31.98-14-46.48c-7.78-19.92-17.85-40.09-17.19-62.02c0,0,0.15,0,0.15,0
							c-0.45,21.95,9.86,41.84,17.73,61.75c3.9,10.1,7.01,20.47,9.94,30.87c2.56,9.49,6.17,21.93,8.72,31.21
							c7.08,26.07,11.44,52.85,21.88,77.81c0,0,6.15,14.98,6.15,14.98c4.11,9.99,8.19,20.01,11.81,30.21
							c5.34,15.19,10.34,30.84,20.68,43.42c17.29,20.85,40.15,35.74,60.32,53.71c12.18,10.72,23.24,22.61,34.92,33.82
							c11.83,11.05,24.84,20.71,37.98,30.16c2.19,1.59,4.36,3.15,6.75,4.3c8.37,4.33,15.02-0.62,20.69-6.76
							c3.54-3.93,7.56-7.81,9.55-12.77c0.91-2.44,0.97-5.23-0.29-7.55c0,0-0.21-0.44-0.21-0.44s-0.27-0.41-0.27-0.41
							s-0.55-0.82-0.55-0.82c-0.39-0.54-0.83-1.06-1.25-1.58c-14.35-17.93-32.33-32.58-47-50.26c-6.96-8.26-13.77-16.66-21.63-24.07
							c-12.51-12.28-24.01-25.6-37.08-37.28c-1.42-1.12-4.46-1.89-4.55-4.18c-0.02-1.31,0.67-2.69,0.36-3.87
							c-0.03-0.24-0.35-0.48-0.48-0.66c-1.62-1.7-4.22-2-6.04-3.58c-2.44-2.45-4.08-5.58-5.45-8.7c-2.15-5.01-3.59-10.26-4.83-15.53
							c-4.71-21.15-6.34-42.81-7.45-64.4c-2.12-43.2,2.96-86.39,0.98-129.58c-0.25-5.39-0.58-10.78-1.05-16.14
							c-1.03-10.72-3.55-21.28-7.11-31.44c-1.78-5.08-3.92-10.05-5.9-15.07c0,0-3.02-7.52-3.02-7.52c-0.98-2.51-2.02-5-3.33-7.36
							c0,0-3.95-7.07-3.95-7.07c-1.28-2.38-2.47-4.83-3.23-7.44C526.42,424.14,526.57,424.1,526.57,424.1L526.57,424.1z"/>
					</g>
					<g>
						<path class="st0" d="M416.92,419.68c0.17,19.75,0.4,40.14-6.76,58.88c-1.41,3.82-4.1,9.88-5.78,13.73
							c-1.46,3.44-4.14,10.33-5.45,13.83c-10.35,27.92-17.2,56.92-24.04,85.86c-4.71,19.26-8.39,38.75-11.14,58.39
							c-2.7,19.63-4.52,39.42-4.55,59.26c-0.06,9.94-0.79,19.85-1.68,29.73c-1.45,17.33-4.41,42.12-4.56,59.32
							c-0.46,28.74-1.26,60.67,0.39,89.23c0,0-0.49-0.56-0.49-0.56c10.18,1.82,20.71,1.46,31.02,2.69
							c3.46,0.41,6.93,0.99,10.32,1.95c0,0-0.9,0.64-0.9,0.64c0.74-12.98,1.75-25.97,3.7-38.85c1.73-12.88,5.57-25.38,7.06-38.29
							c2.69-21.93,2.85-45.86,3.77-67.98c0.07-5.85,0.03-13.78,0.5-19.52c0.25-3.24,0.65-6.67,1.78-9.69
							c0.27-1.04,0.76-2.19,0.61-3.24c-0.38-1.51-1.98-3.12-1.16-4.91c0.54-1.61,2.28-2.4,2.64-3.96
							c1.25-5.15,2.28-10.52,5.28-15.03c1.29-2.08,2.91-3.94,4.31-5.92c2.23-3.35,3.87-7.04,5.42-10.76
							c3.74-9.01,6.42-18.36,9.92-27.48c4.81-12.07,10.75-23.67,14.8-36.02c2.05-6.15,3.51-12.51,4.01-18.99
							c0,0,0.15,0.01,0.15,0.01c-0.81,13.05-5.67,25.4-10.69,37.33c-2.52,5.99-5.17,11.92-7.54,17.95
							c-2.31,6.04-4.18,12.28-6.34,18.41c-2.17,6.15-4.38,12.3-7.55,18.04c-1.58,2.86-3.85,5.26-5.55,8.02
							c-2.67,4.04-3.69,8.85-4.76,13.53c-0.2,0.76-0.35,1.84-0.83,2.49c-0.85,1.36-2.29,2.05-2.23,3.69
							c0.09,0.58,0.53,1.29,0.9,2.04c0.99,1.6,0.35,3.54-0.14,5.17c-1.12,3.1-1.42,6.18-1.67,9.42c-0.42,5.66-0.33,13.7-0.36,19.43
							c-0.14,6.81-0.83,22.28-1.02,29.23c-0.74,19.45-1.57,39.16-6.15,58.18c-4.51,19.24-6.35,38.95-7.5,58.66
							c-13.6-4-28.1-2.41-42.02-5.04c0,0-0.47-0.09-0.47-0.09s-0.02-0.48-0.02-0.48c-1.48-28.59-0.46-60.54,0.12-89.31
							c0.67-29.77,6.24-59.26,6.3-89.04c-0.1-19.87,1.65-39.7,4.19-59.39c2.55-19.69,6.19-39.27,10.86-58.56
							c7.34-31.37,15.18-62.84,27.13-92.84c1.35-3.32,4.34-10.42,5.85-13.7c5.18-11.25,8.1-23.4,9.2-35.73
							C416.84,439.6,416.41,429.23,416.92,419.68L416.92,419.68z"/>
					</g>
					<g>
						<path class="st0" d="M596.53,399.57c0.98,7.15,5.46,13.02,8.45,19.45c1.51,3.28,2.82,6.55,4.17,9.86
							c2.72,6.58,4.97,13.39,7.21,20.14c3.43,10.09,7.16,20.13,10.69,30.17c7.31,20.12,23.32,36.03,29.06,56.85
							c0.98,3.45,1.8,7.14,1.09,10.73c-0.96,4.44-4.96,8.3-7.59,2.44c0,0,1.19-0.21,1.19-0.21c-0.23,4.26-5.88,4.56-7.94,1.42
							c0,0,1.19-0.24,1.19-0.24c-0.7,3.63-3.46,3.45-6.37,2.59c0,0,0.79-0.69,0.79-0.69c0.21,2.34,2.01,4.7,2,7.26
							c-0.02,2.79-2.67,5.55-5.54,5.22c-5.23-1.19-7.77-6.67-11.23-10.14c-2.19-2.54-4.26-5.2-6.01-8.06l0.13-0.08
							c1.93,2.73,4.06,5.29,6.36,7.71c3.48,3.22,6.05,8.39,10.87,9.47c1.51,0.17,2.82-0.85,3.61-2.07c0.89-1.32,0.67-2.84,0.13-4.28
							c-0.66-1.71-1.62-3.71-1.71-5.79c2.23,0.4,5.11,1.85,5.67-1.41c0,0,0.34-1.48,0.34-1.48s0.85,1.25,0.85,1.25
							c1.34,2.15,5.44,2.31,5.61-0.75c0,0,0.19-2.4,0.19-2.4c0.78,1.38,1.85,5.72,4.05,4.24c6.16-5.51,0.74-18.13-1.77-24.6
							c-4.27-9.83-10.7-18.41-16.44-27.41c-5.96-8.92-10.1-18.95-13.57-29.07c-3.72-10-7.21-20.15-10.4-30.32
							c-2.23-6.72-4.87-13.37-7.51-19.93c-1.43-3.23-3.17-6.35-4.65-9.6c-1.46-3.24-2.83-6.64-3.09-10.23
							C596.38,399.58,596.53,399.57,596.53,399.57L596.53,399.57z"/>
					</g>
					<g>
						<path class="st0" d="M649.75,550.64c-1.18-6.46-0.72-13.74-5.15-19.01c1.24,1.13,2.14,2.6,2.84,4.13
							c2.08,4.59,2.62,9.78,3.77,14.57C651.22,550.33,649.75,550.64,649.75,550.64L649.75,550.64z"/>
					</g>
					<g>
						<path class="st0" d="M637.46,552.79c-1.74-4.52-4.23-8.95-4.97-13.81c1.08,4.83,3.82,8.96,5.89,13.42
							C638.38,552.4,637.46,552.79,637.46,552.79L637.46,552.79z"/>
					</g>
					<g>
						<path class="st0" d="M642.93,550.98c-0.17-4.45-0.93-9.18-3.42-12.95c0.76,0.85,1.33,1.87,1.79,2.92
							c1.4,3.16,2.34,6.53,2.62,9.97C643.92,550.92,642.93,550.98,642.93,550.98L642.93,550.98z"/>
					</g>
					<g>
						<path class="st0" d="M619.5,556.92c-11.35-15.29-15.67-16.5-12.13-36.76c0.96-6.63,0.21-13.45-1.4-19.98
							c-3.04-13.23-9.78-25.15-17.69-36.05c-5.71-7.99-12.04-16.87-16.23-25.74c-4.72-9.08-6.58-19.23-8-29.27
							c1.58,6.32,2.47,13.36,4.77,19.64c6.81,19.28,21.82,34.02,30.67,52.24c2.95,6.11,5.13,12.55,6.81,19.1
							c1.64,6.54,2.72,13.36,1.89,20.17c-0.76,6.53-2.32,13.53,0.26,19.79C611.22,546.1,616.31,551.3,619.5,556.92L619.5,556.92z"/>
					</g>
					<g>
						<path class="st0" d="M388.31,890.8c0.62,7.15,0.08,14.36-0.66,21.48c-0.69,7.14-1.65,14.2-2.02,21.36
							c-0.16,1.77-0.41,3.66-1.43,5.22c-3.19,4.16-9.72,5.73-14.75,5.39c-7.48-0.74-13.69-5.49-19.38-9.99
							c3.18-4.22,2.05-11.44-2.74-13.98c0,0-0.47-0.24-0.47-0.24l0.27-0.47c5.26-9.25,5.47-20.33,5.84-30.74
							c0.52,10.26,0.27,21.88-4.96,31.25c0,0-0.21-0.71-0.21-0.71c5.25,2.75,6.62,10.3,3.32,15.06c0,0-0.09-0.65-0.09-0.65
							c2.78,2.23,5.57,4.47,8.62,6.28c5.96,3.88,13.68,5.24,20.18,1.83c1.58-0.78,3.13-1.77,4.07-3.25c0.96-1.47,1.13-3.3,1.22-5.06
							c0.12-7.16,0.83-14.33,1.72-21.42C387.73,905.13,388.2,897.72,388.31,890.8L388.31,890.8z"/>
					</g>
					<g>
						<path class="st0" d="M387.09,926.64c10.12,0.72,6.83,12.44,7.6,19.29c0.11,1.09,0.43,2.1,0.74,3.2
							c1.17,4.36,0.92,8.91,0.92,13.3c0.06,4.4,0.59,9.01-0.72,13.32c-0.66,2.19-1.01,4.6-3,6.15c-2.17,1.1-4.43,0.61-6.68,1.12
							c-4.32,0.98-8.87,1.16-13.3,0.97c-8.87-0.21-17.72-0.85-26.56-1.37c-4.42-0.22-8.84-0.59-13.26-0.35
							c-8.85,0.46-17.54,2.62-26.41,2.97c-4.42,0.27-8.86,0.46-13.3,0.48c-8.85,0.04-17.88,1.07-26.56-1.34
							c-2.16-0.63-4.24-1.47-6.24-2.5c-1.44-0.84-3.46-1.66-3.88-3.48c-0.27-3.93-3.31-13.42,3.23-13.35c0,0-0.53,0.5-0.53,0.5
							c-0.05-4.55,3.16-8.43,7.06-10.39c6.64-3.59,14.19-4.17,21.06-6.99c8.56-4.09,16.48-9.39,24.43-14.55
							c7.07-4.59,14.41-9.23,22.73-11.13c4.12-0.98,8.31-1.6,12.46-2.37l0.02,0.1c-4.14,0.85-8.31,1.57-12.39,2.63
							c-8.23,2.06-15.45,6.68-22.43,11.35c-7.94,5.26-15.79,10.73-24.4,14.88c-6.79,2.84-14.49,3.48-20.96,7
							c-3.78,1.92-6.71,5.58-6.57,9.96c0,0-0.5,0.02-0.5,0.02l-0.74,0.04c-0.24,0.04-0.46,0.12-0.69,0.17
							c-3.08,1.61-1.14,7.42-1.06,10.32c0.12,1,0.09,2.06,0.9,2.74c0.78,0.65,1.75,1.22,2.7,1.73c5.84,3.16,12.49,4.1,19.09,4.18
							c13.24-0.09,26.61,0.21,39.76-1.79c6.57-0.91,13.22-1.91,19.88-1.54c0,0,6.64,0.28,6.64,0.28c8.85,0.39,17.7,0.89,26.55,0.98
							c2.2,0.02,4.45,0.07,6.61-0.02c2.73-0.15,5.44-0.92,8.2-1.24c1.4-0.16,3.5-0.09,4.68-0.76c0.76-0.5,1.27-1.52,1.67-2.49
							c2.16-5.17,1.95-10.72,1.74-16.22c0.01-4.44,0.34-8.88-0.75-13.15c-0.67-2.1-0.9-4.42-0.82-6.64
							C394.1,935.89,395.78,927.99,387.09,926.64L387.09,926.64z"/>
					</g>
					<g>
						<path class="st0" d="M691.24,869.04c4.35,8.46,14.74,12.87,17.44,22.48c1,5.75-2.07,11.63-5.98,15.67
							c-2.84,2.72-6.77,3.99-10.57,4.47c-6.87,1.43-10.6-3.48-14.31-8.32c-3.47-4.48-7.97-8.43-12.45-11.61
							c5.09,2.68,9.46,6.64,13.19,11c3.53,4.4,7.08,9.29,13.45,8c3.72-0.41,7.46-1.47,10.32-3.94c3.98-3.69,7.12-9.62,5.81-15.13
							C705.08,882.54,694.48,877.88,691.24,869.04L691.24,869.04z"/>
					</g>
					<g>
						<path class="st0" d="M702.93,882.72c7.65-2.37,12.89,0.46,19.29,4.24c4.05,2.07,8.54,3.36,12.01,6.49
							c1.55,1.75,2.77,3.4,5.07,4.17c2.22,0.82,3.86,2.83,4.79,4.96c2.5,5.33,1.37,11.49-0.14,16.92
							c-4.21,14.3-13.55,26.32-22.9,37.61c-3.05,3.69-10.13,12.08-12.95,15.75c-5.46,7.19-11.65,14.29-19.94,18.25
							c-8.32,3.87-17.74,4.32-26.78,4.16c-6.81-0.16-13.94-0.74-19.87-4.52c-2.06-1.26-3.11-3.62-3.85-5.83
							c-0.5-1.57-0.95-4.39,1.13-5.18c0.69-0.23,1.35-0.15,1.95-0.04l-0.61,0.54c-0.42-9.07,6.3-17.54,13.64-22.2
							c2.68-1.89,6.25-2.44,8.62-4.69c3.58-4.23,2.7-10.43,2.6-15.63c-0.25-4.42-0.67-8.86-0.57-13.34
							c-0.02-10.92,5.36-17.7,16.83-14.89c4.33,1.19,8.27,3.52,11.56,6.51l-0.07,0.07c-3.34-2.9-7.31-5.13-11.58-6.21
							c-19.12-3.83-16.25,15.19-15.3,27.8c0.18,5.44,1.14,11.91-2.74,16.38c-2.47,2.43-6.04,2.93-8.81,4.87
							c-7.13,4.53-13.86,13.08-13.11,21.91c0,0-0.67-0.14-0.67-0.14c-2.69-0.73-2.52,2.1-1.93,3.94c0.66,1.99,1.58,4.18,3.43,5.32
							c7.67,4.81,17.36,4.58,26.15,4.58c8.96-0.2,18.26-1.8,25.57-7.31c7.44-5.28,12.67-12.87,18.34-19.88
							c0,0,8.62-10.52,8.62-10.52c9.13-11.38,18.22-23.4,22.39-37.58c1.47-5.23,2.65-11.21,0.27-16.34
							c-0.91-2.02-2.24-3.78-4.37-4.59c-1.02-0.46-2.13-0.96-3-1.81c-0.85-0.83-1.48-1.78-2.25-2.56c-1.56-1.51-3.6-2.6-5.6-3.6
							c-2.03-0.99-4.12-1.88-6.14-2.92c-2.06-1.03-3.86-2.42-5.9-3.37c-2.01-1.01-4.18-1.7-6.42-1.91c-2.24-0.2-4.51,0.09-6.7,0.66
							C702.95,882.82,702.93,882.72,702.93,882.72L702.93,882.72z"/>
					</g>
					<g>
						<path class="st0" d="M738.68,896.63c-1.64,23.91-16.6,44.06-29.73,63.15c-7.17,9.98-15.01,20.79-26.8,25.51
							c-4.78,1.96-10.11,2.16-15.21,1.91c-5.87-0.31-11.67-1.32-17.52-1.83c5.85,0.47,11.66,1.44,17.53,1.7
							c4.36,0.17,8.86,0.05,13.05-1.27c12.79-4.15,21.07-15.78,28.54-26.31c9.95-14.44,20.12-29.09,25.8-45.8
							c1.84-5.54,3.11-11.29,3.34-17.1C737.68,896.59,738.68,896.63,738.68,896.63L738.68,896.63z"/>
					</g>
					<g>
						<path class="st0" d="M396.65,965.67c-20.99,7.25-43.3,3.17-64.95,4.39c-16.22,1.03-32.47,4.6-48.8,2.84
							c-5.45-0.44-10.65-2.2-16.04-3c5.39,0.75,10.61,2.47,16.05,2.87c16.35,1.64,32.49-2.06,48.75-3.21
							c10.87-0.77,21.77,0.03,32.64-0.17c10.83-0.14,21.8-1.03,32-4.66L396.65,965.67L396.65,965.67z"/>
					</g>
					<g>
						<path class="st0" d="M394.39,941.05c-5.64,12.15-28.72,12.97-39.1,7.06c-1.79-1.01-3.51-2.11-5.28-3.14
							c3.68,1.77,7.15,4.11,11.14,4.9C371.45,952.15,388.64,951.35,394.39,941.05L394.39,941.05z"/>
					</g>
					<g>
						<path class="st0" d="M350.94,934.22c-5.98,1.69-12.09,2.83-17.71,5.36c-5.62,2.51-10.72,6.08-15.95,9.39
							c-1.31,0.83-2.63,1.65-3.97,2.42c-4.13,2.12-9.14,2.15-12.95,4.95c-4.83,3.84,2.21,7.87,3.45,11.68
							c0.66,1.4,1.21,2.86,1.57,4.37c-0.58-2.24-1.53-4.39-2.73-6.37c-1.25-1.95-3.29-3.38-4-5.68c-1.01-3.5,3.05-5.35,5.71-6.31
							c2.85-1.12,6.06-1.54,8.73-3c1.33-0.79,2.63-1.63,3.92-2.47c5.18-3.37,10.24-7.02,15.91-9.65c5.69-2.64,11.84-3.88,17.74-5.63
							C350.66,933.26,350.94,934.22,350.94,934.22L350.94,934.22z"/>
					</g>
					<path class="st3" d="M341.14,938.18c-4.2-4.22-8.94-10.33-9.66-16.45"/>
					<path class="st3" d="M332.52,943.92c-4.71-5.5-10.09-10.77-12.27-17.75"/>
					<path class="st3" d="M321.04,948.88c-5.31-3.15-9.27-10.66-11.75-16.19"/>
					<path class="st3" d="M310.86,953.84c-4.88-3.7-7.9-9.82-10.96-14.62"/>
					<g>
						<path class="st0" d="M689.23,914.1c7.44,11.34-7.25,21.38-8.28,32.41c-1.51,9.93,3.33,16.29,11.8,20.84
							c2.52,1.48,5.15,2.75,7.83,3.93c-2.76-0.97-5.46-2.15-8.07-3.5c-9.04-4.46-13.97-10.99-12.56-21.39
							C680.96,935.26,695.87,925.52,689.23,914.1L689.23,914.1z"/>
					</g>
					<g>
						<path class="st0" d="M715.47,883.55c2.56,4.51,3.5,9.97,2.08,15.03c-1.39,5.12-5.38,8.7-7.95,13.16
							c0.46-1.2,1.07-2.33,1.7-3.45c1.92-3.22,4.33-6.35,5.29-9.98C717.99,893.43,717.26,888.26,715.47,883.55L715.47,883.55z"/>
					</g>
					<path class="st3" d="M693.02,927.15c-5.76,1.69-13.77-0.01-19.46-1.33c-2.76-0.65-6.89-1.85-9-3.63"/>
					<path class="st3" d="M687.8,938.64c-8,0-17.66-1.59-24.28-6.53"/>
					<path class="st3" d="M684.4,949.08c-8.93,0-15.86-3.27-23.76-6.53"/>
					<path class="st3" d="M685.71,957.17c-8.63,0.09-17.6-4.2-25.32-7.83"/>
					<g>
						<path class="st0" d="M625.48,554.81c2.07,4.62,3.6,9.47,5.12,14.27c2.18,7.28,4.96,14.13,8.64,20.75
							c3.46,6.7,7.14,13.34,11.75,19.32c0,0,0.17,0.22,0.17,0.22c-2.32,2.2-5.06,3.91-8.02,5.13c-3,1.22-6.28,1.93-9.6,1.82
							c0,0-0.18-0.45-0.18-0.45c-6.35-15.84-12.88-31.89-15.14-48.93c-0.65-5.66-1.26-11.64-0.65-17.2
							c0.56,5.58,0.97,11.4,2.14,16.95c2.99,16.11,9.54,33.17,14.96,48.68c0,0-0.63-0.46-0.63-0.46c2.93,0.22,5.94-0.27,8.76-1.26
							c2.83-0.99,5.5-2.51,7.71-4.55l-0.03,0.41c-6.02-8.16-11.75-16.51-16.3-25.62c-2.19-4.64-3.66-9.54-4.96-14.42
							c-1.32-4.88-2.44-9.78-3.95-14.6C625.26,554.77,625.44,554.7,625.48,554.81L625.48,554.81z"/>
					</g>
					<g>
						<path class="st0" d="M651.46,521.01c22.68,8.09,37.32,29.75,45.64,51.4c0,0,0.09,0.25,0.09,0.25l-0.19,0.21
							c-4.09,4.4-7.83,10-13.96,11.74c0,0-1.04,0.26-1.04,0.26s-0.04-1.11-0.04-1.11c-0.66-14.71-7.53-28.78-16.5-40.24
							c-2.31-2.91-4.84-5.63-7.49-8.24c0,0-2.75-2.52-2.75-2.52c-0.04-0.04-0.05-0.1-0.01-0.14c0.03-0.04,0.09-0.04,0.13-0.01
							c1,0.74,2.01,1.48,3,2.25c14.51,11.89,25.04,29.83,25.39,48.87c0,0-1.08-0.85-1.08-0.85c5.72-1.52,9.55-6.64,13.69-10.63
							c0,0-0.1,0.46-0.1,0.46c-3.4-11.2-10.04-21.19-17.77-29.87c-3.83-4.37-7.93-8.52-12.43-12.19c-4.49-3.68-9.35-6.94-14.66-9.44
							C651.28,521.15,651.34,520.96,651.46,521.01L651.46,521.01z"/>
					</g>
					<g>
						<path class="st0" d="M696.41,570.73c21.81-7.23,31.61-32.86,54.06-38.94c22.15,22.36,39.78,48.55,57.54,74.37
							c11.01,15.16,23.23,29.4,33.63,45.02c0,0,0.21,0.31,0.21,0.31l-0.25,0.27c-24.81,27.06-54.49,49.09-84.98,69.31
							c-22.89,15.21-46.76,29.07-71.92,40.22c-4.18,1.88-8.43,3.66-12.63,5.42c-6.75,3.01-13.81,6.13-21.3,6.92
							c-6.69,1.76-11.81-7.07-14.68-11.81c-9.21-15.57-17.76-32.33-27.1-47.74c-5.35-8.72-11.22-17.16-18.1-24.75
							c-5.56-5.79-12.12-10.85-16.1-18c-3.12-5.38,0.48-9.05,4.26-12.61c3.43-3.12,7.16-5.82,10.86-8.51
							c3.27-2.18,7.52-6.11,10.53-8.72c3.46-3,6.96-5.96,10.52-8.85c7.11-5.78,14.4-11.34,21.98-16.48c0.1-0.08,0.22,0.1,0.11,0.16
							c-13.03,9.25-25.21,19.79-37.03,30.52c-5.12,4.57-11.07,8.18-16,12.91c-2.15,2.23-5.08,4.65-4.88,7.89
							c0.59,3.21,2.85,5.88,4.93,8.38c2.98,3.43,6.32,6.52,9.64,9.65c4.98,4.74,9.32,10.31,13.35,15.86
							c14.62,20.35,24.75,43.97,38.52,64.86c1.86,2.5,4.25,5.05,7.29,5.46c3.2-0.56,6.64-0.87,9.76-1.91
							c4.29-1.33,8.43-3.23,12.66-5.02c21.17-8.62,41.69-18.74,61.39-30.33c39.04-23.49,77.59-49.33,108.18-83.47
							c0,0-0.04,0.58-0.04,0.58c-10.57-15.45-23.09-29.48-34.19-44.56c-17.83-25.56-35.14-51.65-56.9-74.1c0,0,0.67,0.19,0.67,0.19
							c-5.3,1.3-10.14,4.11-14.5,7.46c-13.09,9.98-23.11,25.14-39.46,30.22C696.35,570.97,696.29,570.77,696.41,570.73
							L696.41,570.73z"/>
					</g>
					<path class="st3" d="M683.13,580.23c-7.09,7.59-23.35,20.9-33.68,24.28"/>
					<g>
						<path class="st0" d="M750.57,533.27c-3.36,10.69-4.24,21.95-3.12,33.07c0.44,5.57,1.23,11.09,1.92,16.68
							c0.7,5.61,1.03,11.57-0.98,17.01c-2.49,6.78-8.11,11.73-13.38,16.38c-11.72,10.05-24.56,18.74-37.49,27.14
							c-14.05,9.32-28.69,17.39-41.36,28.61c-4.51,3.5-9.25,7.2-15.14,8.09c-5.79,0.65-11.34-0.42-17.01-1.19
							c-11.18-1.94-21.54-6.37-32.45-9.14c-5.4-1.47-11.1-2.44-16.62-1.95c5.4-1.32,11.42-0.14,16.86,0.97
							c10.92,2.32,21.51,6.54,32.5,8.22c2.72,0.35,5.56,0.71,8.3,0.99c10.01,1.33,14.64-1.67,22.28-7.62
							c4.38-3.4,8.57-7.25,13.4-10.28c18.74-12.34,38.87-22.49,56.5-36.42c4.39-3.46,8.66-7.09,12.63-11.03
							c3.91-3.79,7.66-8.12,9.43-13.32c1.87-5.2,1.37-10.82,0.79-16.25c-0.61-5.55-1.34-11.14-1.71-16.76
							c-0.91-11.22,0.37-22.73,4.46-33.25C750.42,533.09,750.62,533.15,750.57,533.27L750.57,533.27z"/>
					</g>
					<path class="st0" d="M738.25,605.78c2.64,3.88,7.03,6.86,9.31,10.8c-2.52,2.19-5.37,4.07-8.23,5.96
						c-1.56-3.22-3.74-7.45-6.68-9.64L738.25,605.78z"/>
					<path class="st0" d="M661.01,660.36c1.81,1.82,3.04,4.41,4.64,6.45c1.14,1.46,2.78,2.94,3.54,4.56
						c-2.18,1.48-4.56,2.73-6.68,4.21c-2.21-3.7-4.57-7.47-7.11-10.91L661.01,660.36z"/>
					<path class="st1" d="M646.44,603.74c-4.28,3.59-11.08,3.49-15.89,3.49"/>
					<path class="st1" d="M641.6,596.18c-2.29,0.37-5.62,2.84-7.63,4.12c-1.34,0.85-2.68,1.81-3.81,2.85"/>
					<path class="st1" d="M638.69,591.53c-3.67-2.05-9.9-1.57-13.76-0.19"/>
					<path class="st1" d="M633.07,579.71c-2.33,2.18-6.48,4.1-9.69,4.46"/>
					<path class="st1" d="M630.94,573.12c-2.18-0.3-4.33-1.55-6.51-1.67c-1.31-0.08-2.65,0.46-3.95,0.7"/>
					<path class="st1" d="M628.42,565.37c-2.88-2.56-7.43-3.85-11.24-2.52"/>
					<path class="st1" d="M617.96,554.71c1.7,2.24,6.02,3.4,8.72,3.49"/>
					<path class="st4" d="M692.52,562.69c-0.1,5.3-4.91,12.53-9.26,15.67"/>
					<path class="st1" d="M689.07,555.88c-3.67,1.07-7.65,5.61-9.3,9.11"/>
					<path class="st1" d="M681.13,545.99c-0.01,5.51-2.5,8.61-4.84,13.18"/>
					<path class="st1" d="M676.29,539.79c-3.9,2.57-4.55,6.07-6.2,9.69"/>
					<path class="st1" d="M668.53,531.66c0.95,3.75,0.16,7.14-1.94,10.27"/>
					<path class="st1" d="M660.01,525.84c1.6,3.12,1.85,7.97,0,11.05"/>
					<g>
						<path class="st0" d="M815.09,631.53c5.61,5.35,17.06,12.25,18.23,20.25c0.14,1.93-0.99,3.64-2.13,5.09
							c-2.35,2.9-5.31,5.19-8.12,7.56c-19.76,16.67-41.34,31.11-63.24,44.79c-12.52,7.07-25.37,15.82-37.07,24.15
							c-9.15,6.27-19.46,10.67-28.66,16.78c-9.17,6.19-18.3,12.51-27.99,17.93c-2.46,1.22-5.18,2.99-8.08,2.33
							c-0.99-0.3-1.77-0.94-2.43-1.62c-2.59-2.77-4.04-6.27-5.63-9.62c-8.06-16.57-17.99-32.23-29.08-46.93
							c-8.84-11.77-18.8-22.91-30.95-31.37c12.25,8.32,22.36,19.39,31.34,31.08c8.91,11.79,17.22,24.06,24.19,37.1
							c0,0,2.63,4.88,2.63,4.88c2.75,4.7,4.33,10.28,8.04,14.34c2.65,3.16,6.68,0.64,9.59-0.87c3.16-1.84,6.35-3.75,9.49-5.67
							c6.24-3.91,12.23-8.23,18.38-12.33c6.17-4.13,12.78-7.49,19.2-11.09c5.69-2.96,13.2-8.32,18.52-12.03
							c6.08-4.2,12.22-8.32,18.56-12.13c12.65-7.23,25.46-15.37,37.4-23.66c15.05-10.54,30.58-20.87,43.63-33.84
							c2.9-3.24,2.6-6.31,0.12-9.86C826.76,640.72,820.48,636.51,815.09,631.53L815.09,631.53z"/>
					</g>
					<g>
						<path class="st0" d="M437.6,204.45c-3.05,7.59-1.19,15.87-1.67,23.81c-0.39,4.08-1.55,7.99-2.79,11.83
							c-3.64,11.52-7.75,22.91-11.85,34.27c-2.56,7.59-5.65,15.13-6.71,23.11c-0.55,3.98-0.72,8-0.69,12.02
							c-0.13,20.04,2.87,40.55-2.77,60.12c-0.97,3.91-2,7.8-2.77,11.76c-0.62,3.89-2.11,8.02-0.82,11.91
							c-1.3-3.88,0.16-8.03,0.76-11.92c0.75-3.96,1.76-7.86,2.71-11.77c5.54-19.59,2.42-40.05,2.45-60.09
							c-0.05-4.03,0.1-8.08,0.63-12.09c1.02-8.04,4.09-15.61,6.62-23.25c4.04-11.4,8.09-22.76,11.67-34.31
							c1.21-3.83,2.33-7.7,2.69-11.66c0.41-8.01-1.46-16.34,1.61-24.08C436.67,204.1,437.6,204.45,437.6,204.45L437.6,204.45z"/>
					</g>
					<g>
						<path class="st0" d="M519.92,38.48c-4.75-6.82-12.46-10.98-20.14-13.76c-15.64-5.89-33.53-4.06-48.36,3.35
							c-7.36,3.77-14.11,9.47-17.34,17.25c3.17-7.82,9.9-13.59,17.25-17.42c18.79-9.68,41.88-9.67,59.97,1.65
							c3.56,2.22,6.8,5.03,9.24,8.51C520.54,38.07,519.92,38.48,519.92,38.48L519.92,38.48z"/>
					</g>
					<g>
						<path class="st0" d="M521.51,42.05c-8.74-9.29-23.59-8.97-35.45-8.63c-6.31,0.2-12.62,0.99-18.55,3.25
							c-5.93,2.2-11.38,5.49-16.59,9.05c5.18-3.61,10.6-6.96,16.53-9.23c5.92-2.32,12.28-3.18,18.6-3.44
							c12.07-0.47,27.02-0.9,36.03,8.51C522.08,41.55,521.51,42.05,521.51,42.05L521.51,42.05z"/>
					</g>
					<g>
						<path class="st0" d="M522.34,43.66c-3.23-2.36-7.56-2.77-11.47-3.01c-4.06-0.18-8.14,0.02-12.19,0.47
							c-8.23,0.68-15.49,4.9-23.09,7.73c3.82-1.46,7.47-3.29,11.24-4.86c7.53-3.33,15.9-4.04,24.06-3.9
							c4.09,0.21,8.44,0.52,11.92,2.99C522.81,43.07,522.34,43.66,522.34,43.66L522.34,43.66z"/>
					</g>
					<g>
						<path class="st0" d="M525.2,53.02c-9.49,9.85-22.98,14.84-36.3,16.58c13.18-1.96,26.56-7.18,35.75-17.09
							C524.65,52.51,525.2,53.02,525.2,53.02L525.2,53.02z"/>
					</g>
					<g>
						<path class="st0" d="M526.4,54.49c7.63,10.39,8.46,24.05,8,36.49c-0.64,14.52-5.14,30.04-16.59,39.72
							c-5.02,4.09-11.74,4.6-17.94,5.08c6.19-0.53,12.88-1.08,17.85-5.19c11.32-9.71,15.68-25.18,16.21-39.63
							c0.36-8.35-0.2-16.86-2.6-24.89c-1.22-3.99-2.95-7.86-5.52-11.11C525.81,54.96,526.4,54.49,526.4,54.49L526.4,54.49z"/>
					</g>
					<g>
						<path class="st0" d="M479.06,123.48c2.25,4.68,5.48,8.97,9.68,12.08c8.3,6.21,20.05,8.24,29.78,4.41
							c4.88-2.02,8.78-5.85,11.88-10.06c-3.06,4.25-6.91,8.14-11.81,10.24c-9.82,4-21.69,2.07-30.19-4.13
							c-4.32-3.12-7.67-7.45-10.02-12.21L479.06,123.48L479.06,123.48z"/>
					</g>
					<g>
						<path class="st0" d="M526,53.31c3.45,4.84,2.38,11.17,2.85,16.74c0.22,5.67,0.38,11.38-0.41,17.03
							c-1.81,11.06-6.73,22.43-16.05,29.12c9.21-6.77,13.99-18.15,15.68-29.17c1.01-8.42,0.16-17.01-0.21-25.44
							c-0.26-2.77-0.75-5.67-2.45-7.8L526,53.31L526,53.31z"/>
					</g>
					<g>
						<path class="st0" d="M466.77,81.37c14.48,3.31,39.81-2.14,50.13-13.17c1.68-1.92,3.03-4.14,4.9-5.9
							c-1.85,1.78-3.18,4-4.85,5.94c-10.27,11.16-35.69,16.84-50.29,13.62C466.66,81.85,466.77,81.37,466.77,81.37L466.77,81.37z"/>
					</g>
					<g>
						<path class="st0" d="M468.13,84.26c2.99,1.43,6.44,1.46,9.71,1.53c10.01,0.71,20.1-1.2,29.08-5.75
							c-8.94,4.66-19.04,6.7-29.08,6.12c-3.34-0.03-6.82-0.02-9.93-1.46C467.91,84.71,468.13,84.26,468.13,84.26L468.13,84.26z"/>
					</g>
					<g>
						<path class="st0" d="M465.24,75.37c4.59,1.75,9.62,2,14.5,1.99c4.9-0.13,9.92-0.02,14.65-1.5c-4.71,1.56-9.74,1.53-14.65,1.75
							c-4.93,0.09-9.98-0.08-14.68-1.78C465.05,75.84,465.24,75.37,465.24,75.37L465.24,75.37z"/>
					</g>
					<g>
						<path class="st0" d="M480.5,123.77c2.82,3.57,7.8,4.7,12.06,5.59c9.02,1.45,18.81-0.5,25.61-6.88
							c1.68-1.55,3.24-3.27,4.45-5.22c1.19-1.96,1.96-4.15,3.09-6.16c-1.11,2.01-1.85,4.2-3.03,6.19c-1.2,1.97-2.75,3.7-4.42,5.28
							c-8.5,8.04-21.75,9.43-32.44,5.35c-2.14-0.88-4.36-1.92-5.74-3.89C480.08,124.04,480.5,123.77,480.5,123.77L480.5,123.77z"/>
					</g>
					<g>
						<path class="st0" d="M536.28,7.94c8.78,11.19,0.44,27.53,9.27,38.69c-6.76-8.15-4.18-19.5-6.07-29.15
							c-0.62-3.25-1.83-6.42-3.97-8.91L536.28,7.94L536.28,7.94z"/>
					</g>
					<g>
						<path class="st0" d="M523.6,16.35c0.06,17.13,4.95,35.18,16.73,48.03C528.23,51.65,523,33.63,522.6,16.35
							C522.6,16.35,523.6,16.35,523.6,16.35L523.6,16.35z"/>
					</g>
					<g>
						<path class="st0" d="M531.53,56.53c-0.51-2.65-2.21-4.92-3.33-7.44c-3.1-7.65-5.08-15.74-6.01-23.94
							c1.05,8.15,3.16,16.21,6.35,23.78c1.14,2.46,2.89,4.69,3.49,7.5L531.53,56.53L531.53,56.53z"/>
					</g>
					<g>
						<path class="st0" d="M518.32,15.56c-0.05,5.1,0.75,10.19,1.96,15.15c1.11,5.01,3.52,9.6,5.23,14.41
							c-1.8-4.79-4.28-9.34-5.48-14.35c-1.29-4.96-2.18-10.06-2.21-15.21H518.32L518.32,15.56z"/>
					</g>
					<g>
						<path class="st0" d="M515.98,16.93c0.07,6.3-1,13.36,2.88,18.8c-4.03-5.34-3.15-12.51-3.38-18.79
							C515.48,16.94,515.98,16.93,515.98,16.93L515.98,16.93z"/>
					</g>
					<g>
						<path class="st0" d="M533.76,7.91c2.14,2,2.66,5.1,3.06,7.88c0.37,2.84,0.58,5.69,0.7,8.54c0.2,5.69,0.33,11.43,1.72,16.97
							c1.98,8.13,6.29,16.52,14.37,19.85c2.6,1.14,5.64,1.21,8.33,0.65c-1.36,0.42-2.8,0.64-4.24,0.58
							c-14.07-1.33-19.19-17.42-19.94-29.49c-0.54-5.68-0.71-11.39-1.32-17.05C536.14,13.05,535.6,10.02,533.76,7.91L533.76,7.91z"
							/>
					</g>
					<g>
						<path class="st0" d="M562.11,62.14c-2.39,2.32-5.99,2.3-9.07,1.93c-3.19-0.45-5.96-2.29-8.25-4.4
							c-4.7-4.16-8.52-9.32-10.84-15.18c-3.71-8.45-3.07-18.74-2.99-27.78c-0.01-2.2-0.4-5.16-2.92-5.78
							c-0.73-0.2-1.65-0.14-2.14,0.52c0.48-0.66,1.41-0.73,2.14-0.54c2.54,0.61,2.95,3.59,2.98,5.79
							c-0.01,9.03-0.6,19.28,3.16,27.69c2.35,5.8,6.15,10.89,10.85,14.99c2.29,2.07,4.99,3.84,8.06,4.25
							c2.92,0.34,6.44,0.34,8.65-1.84C561.75,61.79,562.11,62.14,562.11,62.14L562.11,62.14z"/>
					</g>
					<g>
						<path class="st0" d="M524.16,15.43c2.95,4.98,3.36,10.87,3.96,16.47c0.56,5.62,1.65,11.2,3.52,16.54
							c2.75,7.51,7.37,16.75,16.16,17.92c2.82,0.23,5.66,0,8.45-0.48c-2.78,0.5-5.63,0.76-8.46,0.54
							c-8.86-1.11-13.57-10.36-16.39-17.9c-3.09-8-3.41-16.62-4.81-24.97c-0.56-2.75-1.4-5.48-2.86-7.86L524.16,15.43L524.16,15.43z
							"/>
					</g>
					<g>
						<path class="st0" d="M538.82,9.34c3.46-4.02,10.09-0.66,13.37,2.09c4.85,4.66,4.79,12.64,1.54,18.18
							c-1.76,2.72-4.2,4.92-5.4,7.99c-2.01,4.61-1.76,10.27,3.86,11.85c5.85,1.85,14.08,1.73,17.18-4.53
							c-2.19,4.64-7.71,6.1-12.46,5.55c-2.4-0.2-4.88-0.64-6.97-1.91c-2.27-1.22-3.01-3.9-2.91-6.32c0.04-5.11,3.73-8.89,6.46-12.77
							c4.11-6.96,2.57-17.18-5.6-20.27c-2.68-1.2-6.55-2.2-8.66,0.44C539.22,9.64,538.82,9.34,538.82,9.34L538.82,9.34z"/>
					</g>
					<g>
						<path class="st0" d="M539.02,11.1c1.94-2.24,5.22-0.67,7.24,0.62c5.09,2.89,5.66,8.58,3.46,13.56c-0.9,2.39-2.22,4.58-3.2,6.9
							c-1.79,4.59-2.38,10.27,0.53,14.53c1.49,2.02,3.79,3.47,6.31,3.81c2.52,0.36,5.06-0.21,7.59,0.1c-2.53-0.29-5.07,0.3-7.6-0.04
							c-2.53-0.32-4.87-1.76-6.4-3.8c-2.98-4.29-2.43-10.03-0.66-14.69c0.97-2.36,2.26-4.55,3.14-6.92
							c2.89-6.79,0.33-12.52-6.79-14.58c-1.15-0.29-2.46-0.14-3.23,0.82C539.42,11.41,539.02,11.1,539.02,11.1L539.02,11.1z"/>
					</g>
					<g>
						<path class="st0" d="M526.72,54.75c11.16,6.62,15.17,18.28,14.69,30.73c0,5.95-0.37,11.91-1.38,17.78
							c-1.04,5.85-2.69,11.65-5.51,16.9c2.78-5.27,4.39-11.07,5.38-16.92c0.97-5.87,1.3-11.82,1.26-17.76
							c0.02-5.91-0.49-11.94-3.01-17.37c-2.39-5.42-6.62-9.92-11.68-12.93C526.46,55.17,526.72,54.75,526.72,54.75L526.72,54.75z"/>
					</g>
					<g>
						<path class="st0" d="M470.43,86.43c4.93,1.81,10.35,1.16,15.51,1.26c-5.23,0.07-10.59,0.9-15.68-0.79
							C470.26,86.9,470.43,86.43,470.43,86.43L470.43,86.43z"/>
					</g>
					<g>
						<path class="st0" d="M496.16,103.54c-0.08-1.33,0.14-2.84-0.72-3.94c-1.64-1.75-4.43-0.6-5.9,0.84
							c-2.5,2.41-1.24,4.68,0.41,7.13c0.61,1.06,0.1,2.09-1,2.5c-1.66-0.5-3.75,0.29-4.04,2.17c0.14-1.94,2.3-2.95,4.06-2.5
							c0,0-0.1,0.01-0.1,0.01c0.88-0.39,1.21-1.14,0.7-1.99c-1.79-2.53-3.09-5.1-0.34-7.66c1.63-1.58,4.71-2.69,6.43-0.67
							C496.53,100.62,496.17,102.18,496.16,103.54L496.16,103.54z"/>
					</g>
					<g>
						<path class="st0" d="M490.26,99.76c1.16,0.57,2.35,1.26,3.14,2.36c0.86,1.2,1.13,2.63,1.37,4.01c0,0-0.2-0.28-0.2-0.28
							c-0.64-0.98-1.48-1.98-2.76-1.96c1.28-0.09,2.2,0.92,2.88,1.87c0,0-0.14,0.06-0.14,0.06c-0.28-1.25-0.64-2.52-1.42-3.5
							c-0.78-0.98-1.93-1.59-3.09-2.1L490.26,99.76L490.26,99.76z"/>
					</g>
					<g>
						<path class="st0" d="M490.16,112.57c-1.11,0.78-2.49,1.15-3.84,1.05c-1.28-0.08-2.63-0.25-3.64,0.67
							c-2.24,1.63-1.52,5.26,1.04,6.19c-1.32-0.29-2.43-1.42-2.73-2.8c-0.54-2.09,1.16-4.44,3.32-4.56
							C486.33,113.13,488.28,113.65,490.16,112.57L490.16,112.57z"/>
					</g>
					<g>
						<path class="st0" d="M446.44,78.68c-4.48-4.56-10.9-6.77-17.22-6.74c0,0-0.02-0.11-0.02-0.11c3.12-1.25,6.69-0.5,9.61,0.92
							c2.97,1.37,5.69,3.33,7.72,5.86L446.44,78.68L446.44,78.68z"/>
					</g>
					<g>
						<path class="st0" d="M444.05,86.32c-4.18,0.37-8.06-2.08-11.44-4.27c0,0,0.13-0.03,0.13-0.03c-0.7,1.1-1.05,2.41-1.18,3.7
							c-0.11,1.3-0.01,2.62,0.43,3.81l-0.23-0.16C435.99,89.24,440.35,88.43,444.05,86.32L444.05,86.32z M444.1,86.3
							c-3.52,2.76-8.15,3.6-12.52,3.56c-0.48-1.35-0.51-2.81-0.29-4.18c0.22-1.35,0.64-2.67,1.34-3.85
							C436.21,83.83,439.93,85.96,444.1,86.3L444.1,86.3z"/>
					</g>
					<g>
						<path class="st0" d="M442.58,86.31c-5.01-1.11-10.05-2.9-13.97-6.31C432.75,81.86,438.65,84.06,442.58,86.31L442.58,86.31z"/>
					</g>
					<path class="st0" d="M434.41,83.74c1.06,1.65,0.54,4.34-1.16,5.36c-1.77,1.06-1.67-2.48-1.66-3.62
						c0.01-0.92,0.19-1.82,0.58-2.57L434.41,83.74z"/>
					<g>
						<path class="st0" d="M436.61,114.93c-3.47,2.32-8.35,2.83-12.19,1.62C428.52,116.63,432.84,116.1,436.61,114.93L436.61,114.93
							z"/>
					</g>
					<g>
						<path class="st0" d="M415.15,103.28c3.45,1.92,8.1,2.73,6.55-2.9c-0.14-0.5-0.36-0.98-0.68-1.41c0.8,0.73,1.18,1.82,1.34,2.89
							C423.04,106.7,417.41,105.35,415.15,103.28L415.15,103.28z"/>
					</g>
					<g>
						<path class="st0" d="M477.68,124.43c-1.51,4.89-3.91,9.45-6.73,13.7c-2.81,4.29-6.81,7.54-10.48,11.04
							c3.56-3.58,7.49-6.92,10.17-11.24c2.69-4.27,4.96-8.86,6.33-13.7C476.96,124.22,477.68,124.43,477.68,124.43L477.68,124.43z"
							/>
					</g>
					<g>
						<path class="st0" d="M545.58,375.31c2.88,1.08,6.09,1.04,9.25,1.11c3.2,0.1,6.34,0.26,9.5,0.05c3.15-0.19,6.27-0.71,9.3-1.6
							c3.02-0.84,5.95-2.31,9.23-2.52c1.6-0.13,3.55,0.3,4.36,1.87c0.73,1.49,0.86,3.28,0.12,4.79c-1.6,2.97-5.17,3.86-8.2,4.53
							c-3.14,0.61-6.32,0.8-9.5,0.9c-3.21,0.02-6.3-0.88-9.45-1.26c3.16,0.34,6.26,1.2,9.45,1.14c3.17-0.14,6.35-0.38,9.45-1.02
							c2.92-0.67,6.44-1.61,7.91-4.45c0.66-1.37,0.51-3.09-0.17-4.41c-0.74-1.35-2.43-1.73-3.94-1.58
							c-3.13,0.23-6.01,1.71-9.08,2.62c-6.11,1.96-12.66,2.05-18.99,1.83c-3.15-0.03-6.45,0.07-9.59-1.05
							C545.23,376.24,545.58,375.31,545.58,375.31L545.58,375.31z"/>
					</g>
					<g>
						<path class="st0" d="M600.53,383.45c-7.84,11.09-21.52,16.79-34.79,17.44c-4.44,0.21-8.92-0.14-13.24-1.16
							c17.07,3.48,37.03-2.15,47.2-16.85C599.7,382.89,600.53,383.45,600.53,383.45L600.53,383.45z"/>
					</g>
					<g>
						<path class="st0" d="M555,400.5c0.42,1.13,2.44,1.44,3.57,1.78c10.47,3.9,26.78,0.83,36.74-3.82c1.73-0.95,3.59-2.13,4.3-4.08
							c-0.31,0.97-0.98,1.79-1.73,2.46c-2.32,2-5.25,3.1-8.1,4.09c-3.83,1.32-7.77,2.38-11.78,3c-6.48,0.88-13.39,1.5-19.67-0.79
							c0,0-1.47-0.37-1.47-0.37c-1.07-0.28-2.27-0.76-2.77-1.89C554.08,400.89,555,400.5,555,400.5L555,400.5z"/>
					</g>
					<g>
						<path class="st0" d="M507.28,285.32c10.62,20.35,28.06,36.62,47.59,48.37c6.63,3.84,13.52,7.56,21.12,9.01
							c-5.31,4.38-16.08,2.11-22.44,1.14c6.36,0.93,16.87,3.07,22.23-1.15c-7.13-0.93-14.55-5.12-21.05-8.74
							c-13.23-7.74-25.21-17.63-35.19-29.27c-4.97-5.84-9.35-12.2-12.92-19.01C506.61,285.66,507.28,285.32,507.28,285.32
							L507.28,285.32z"/>
					</g>
					<g>
						<path class="st0" d="M508.44,183.59c7.83,7.9,17.68,14.03,23.77,23.6c0,0,0.2,0.33,0.2,0.33l-0.36,0.14
							c-8.56,3.07-14.8,10.33-18.31,18.56c0,0-0.26-0.19-0.26-0.19c7.28-6.75,16.41-11.29,25.93-13.88
							c-9.47,2.69-18.54,7.32-25.71,14.12c0,0-0.59,0.56-0.59,0.56s0.33-0.75,0.33-0.75c3.45-8.35,9.74-15.8,18.39-19.01
							c0,0-0.15,0.46-0.15,0.46c-3.01-4.67-7.09-8.54-11.29-12.19c-4.21-3.65-8.64-7.09-12.66-11.04
							C507.74,184.3,508.44,183.59,508.44,183.59L508.44,183.59z"/>
					</g>
					<g>
						<path class="st0" d="M442.26,424.69c26.6-9.19,30.25-36.03,38.29-59.35c1.19,14-2.79,27.63-6.27,41.02
							c3.27-13.12,7.07-26.45,5.97-40.1c0,0,0.35,0.05,0.35,0.05c-1.93,5.79-3.58,11.67-5.37,17.51
							c-3.58,11.61-7.89,23.66-16.95,32.22c-4.46,4.27-9.9,7.45-15.68,9.59C442.6,425.63,442.26,424.69,442.26,424.69L442.26,424.69
							z"/>
					</g>
					<path class="st0" d="M427.77,202.32c0.19,4.94-1.5,10.86-2.54,15.71c-0.73,3.41-2.87,7.61-2.72,11.07
						c3-0.99,6.01-1.72,9.14-2.08L427.77,202.32z"/>
					<g>
						<path class="st0" d="M429.56,427.05c0.15,6.02-2.09,11.64-3.09,17.46c-0.42,2.89-0.87,5.83-1.21,8.74
							c-0.21,2.87-0.78,5.98,0.37,8.71c-1.23-2.71-0.76-5.85-0.62-8.74c0.47-5.88,1.33-11.75,2.68-17.48
							c0.57-2.87,1.04-5.78,0.87-8.65C428.56,427.1,429.56,427.05,429.56,427.05L429.56,427.05z"/>
					</g>
					<path class="st0" d="M423.65,429.15c1.75,2.48,2.11,4.71,1.14,7.75c-0.75,2.36-2.23,3-4.01,0.96
						C418.87,435.66,418.76,428.37,423.65,429.15z"/>
					<g>
						<path class="st0" d="M461.88,453.35c2.34,10.12,11.98,16.08,20.09,21.46c4.26,2.67,8.66,5.14,13.36,6.9
							c4.85,1.83,10.03,2.84,15.2,2.5c-0.16,2.88-0.81,5.68-1.69,8.39c-18.28-2.45-34.77-13.26-46.17-27.5
							c8.84,10.27,20.13,18.48,32.82,23.27c4.23,1.55,8.63,2.59,13.08,3.23l-0.53,0.33c0.73-2.35,1.27-4.79,1.45-7.22l0.52,0.53
							c-10.34,0.43-20.03-4.24-28.45-9.78C473.52,469.93,463.83,463.64,461.88,453.35L461.88,453.35z"/>
					</g>
					<g>
						<path class="st0" d="M464.16,431.88c2.74,3.64,3.28,8.63,2.46,13.01C466.02,440.42,465.64,436.16,464.16,431.88L464.16,431.88
							z"/>
					</g>
					<g>
						<path class="st0" d="M457.3,432.58c0.34,1.8,0.7,3.51,0.84,5.34c0.19,1.88-0.63,3.55-0.48,5.39c-0.94-1.61-0.3-3.61-0.51-5.32
							C457.04,436.23,456.85,434.38,457.3,432.58L457.3,432.58z"/>
					</g>
					<g>
						<path class="st0" d="M507.24,436.27c2.04,2.58,3.17,5.85,3.17,9.14C509.05,442.4,508.05,439.48,507.24,436.27L507.24,436.27z"
							/>
					</g>
					<g>
						<path class="st0" d="M515.15,434.34c2.51,2.2,3.48,6.13,2.64,9.32C517.19,440.38,516.5,437.39,515.15,434.34L515.15,434.34z"
							/>
					</g>
					<g>
						<path class="st0" d="M578.08,738.79c-6.21,3.37-13.36,3.65-20.23,3.99c0,0,0.09-0.25,0.09-0.25c2,1.91,4.76,2.86,7.51,3.15
							c-2.86-0.2-5.8-1.12-7.95-3.15c6.87-0.59,14.04-1.04,20.1-4.61C577.6,737.91,578.08,738.79,578.08,738.79L578.08,738.79z"/>
					</g>
					<g>
						<path class="st0" d="M410.5,715.95c-3.67-2.38-8.1-3.23-12.04-5.16c-4.34-2.17-8.98-4.46-11.56-8.8c0,0,1.2,0.69,1.2,0.69
							c5.44,3.11,11.46,5.85,17.85,5.59c0,0-0.14,0.28-0.14,0.28c-1.19-1.73-3.26-2.63-5.13-3.47c-3.98-1.5-7.78-3.49-11.25-5.98
							c-1.73-1.23-3.41-2.57-4.86-4.13c2.97,3.05,6.64,5.32,10.36,7.34c3.68,2.2,8.72,2.59,11.36,6.3c0,0-0.32,0.02-0.32,0.02
							c-6.48,0.35-12.63-2.34-18.18-5.4c0,0,0.41-0.45,0.41-0.45c1.24,1.75,2.98,3.09,4.82,4.23c3.74,2.27,7.72,4.03,11.91,5.37
							c2.08,0.73,4.18,1.53,6.1,2.74L410.5,715.95L410.5,715.95z"/>
					</g>
					<g>
						<path class="st0" d="M688.85,858.97c-0.83,6.27-5.31,10.94-8.99,15.69c-3.85,4.72-8.78,8.34-13.82,11.61
							c4.95-3.41,9.76-7.16,13.43-11.92c3.43-4.67,7.78-9.53,8.39-15.46C687.86,858.9,688.85,858.97,688.85,858.97L688.85,858.97z"
							/>
					</g>
					<g>
						<path class="st0" d="M394.53,886.93c-5.9-1.66-12.12-1.9-18.22-2.42c-6.15-0.5-12.28-1.11-18.45-1.2
							c9.26-0.02,18.49,0.71,27.73,1.24c3.08,0.26,6.17,0.64,9.21,1.41L394.53,886.93L394.53,886.93z"/>
					</g>
					<path class="st5" d="M438.78,546.55c-3.16,13.02-10.85,26.29-15.82,38.94c-5.65,14.37-10.81,28.72-14.49,43.67
						c-4.86,19.77-10.23,40.2-14.33,59.53c-1.01,4.75-1.38,9.92-3.09,14.43c-1.35,3.55-3.45,4.81-3.96,8.67
						c-0.53,4.04,0.89,8.63,0.78,12.83c-0.74,28.5-3.92,57.04-3.92,85.83c0,17.23-2.05,33.58-3.53,50.63
						c-0.52,6-1.69,13.41-1.17,18.3"/>
					<path class="st5" d="M672.95,872.35c-18.41-9.48-36.54-31.68-50.15-46.84c-18.69-20.81-36.5-45.01-57.79-63.12
						c-8-6.81-8.9-6.56-11.09-15.5c-2.17-8.87-8.16-17.6-11.92-26.04c-15.52-34.8-22.91-72.08-26.3-109.9
						c-2.29-25.56-4.62-50.88-5.7-76.48c-0.53-12.47-2.16-28.33,0.82-40.38c3.61-14.59,0.17-27.51-4.79-41.72"/>
					<g>
						<path class="st0" d="M544.72,464.19c-3.36,0.29-6.51,1.91-9.71,2.97c0,0-0.08-0.27-0.08-0.27c-0.57-2.33-2.18-5.2-0.98-7.54
							c1.02-1.28,2.78-1.34,4.08-2.15c-3.9,1.96-5.15,1.74-3.61,6.63c0.31,0.97,0.7,1.91,1.04,2.9l-0.36-0.18
							c3.14-1.23,6.11-2.9,9.54-3.35C544.64,463.19,544.72,464.19,544.72,464.19L544.72,464.19z"/>
					</g>
					<g>
						<path class="st0" d="M700.31,965.81c-1.71,0.04-2.89-1.05-3.93-2.28C698.09,963.54,699.22,964.62,700.31,965.81L700.31,965.81
							z"/>
					</g>
					<g>
						<path class="st0" d="M305.12,962.15c1.71,2.15,3.59,4.43,3.65,7.31C307.39,967.04,305.63,964.97,305.12,962.15L305.12,962.15z
							"/>
					</g>
					<g>
						<path class="st0" d="M396.36,968.67c-3.36,2.83-7.94,2-11.93,2.92c-4.03,0.71-8.09,1.57-12.21,1.7
							c-6.16,0.39-12.32-0.02-18.47,0.55c-2.04,0.07-4.15,0.11-6.09-0.63c3.96,1.31,8.17,0.2,12.24,0.14
							c4.11,0.01,8.22-0.03,12.31-0.31c6.16-0.28,12.12-2.15,18.28-2.64c1.99-0.28,4.1-0.71,5.53-2.08L396.36,968.67L396.36,968.67z
							"/>
					</g>
					<g>
						<path class="st0" d="M256.69,975.01c8.12,9.73,30.25,6.16,42.05,6.64c-11.95-0.35-34.06,3.52-42.44-6.33
							C256.29,975.32,256.69,975.01,256.69,975.01L256.69,975.01z"/>
					</g>
					<g>
						<path class="st0" d="M743.84,901.66c-0.02,6.59-0.92,13.22-3.1,19.46c-2.07,6.33-6.5,11.42-9.58,17.23
							c2.99-5.83,7.36-10.99,9.34-17.31c2.08-6.24,2.89-12.83,2.83-19.38H743.84L743.84,901.66z"/>
					</g>
					<g>
						<path class="st0" d="M638.69,983.88c1.22,1.77,3.31,2.8,5.34,3.58c3.59,1.46,9.18,1.98,13.03,2.52
							c2.2,0.27,4.42,0.46,6.65,0.35c-2.22,0.15-4.45,0-6.66-0.23c-3.92-0.48-9.46-0.88-13.14-2.29c-2.08-0.76-4.24-1.73-5.63-3.65
							C638.28,984.16,638.69,983.88,638.69,983.88L638.69,983.88z"/>
					</g>
					<g>
						<path class="st0" d="M377.18,915.38c0.96,6.26,1.95,13.83-2.34,19.12C377.85,928.51,376.74,921.84,377.18,915.38
							L377.18,915.38z"/>
					</g>
					<g>
						<path class="st0" d="M704.19,894.7c-5.04-1.73-9.46-4.91-13.27-8.58C695.59,888.69,699.78,891.74,704.19,894.7L704.19,894.7z"
							/>
					</g>
				</g>
				<g>
					<path class="st0" d="M526.41,425.26c4.71,2.59,10.64,1,14.47-2.48c4.09-3.49,5.94-9.01,5.41-14.3
						c-0.36-5.39-2.44-10.46-3.6-15.71c-1.24-5.26-1.45-10.79-0.14-16.06c-1.22,5.27-0.94,10.77,0.38,16
						c1.88,7.72,5.79,15.84,2.98,23.82c-2.59,7.78-12.17,13.68-19.97,9.61C525.94,426.14,526.41,425.26,526.41,425.26L526.41,425.26
						z"/>
				</g>
				<g>
					<path class="st0" d="M409.18,350.32c-6.99,16.6-13.38,34.32-12.87,52.56c0.17,7.56,2.79,14.3,10.3,17.2
						c3.31,1.37,6.89,2.02,10.48,2.5c0,0-0.14,0.99-0.14,0.99c-3.62-0.53-7.26-1.22-10.68-2.68c-6.43-2.51-10.02-8.49-10.39-15.23
						C394.44,386.99,401.83,367.22,409.18,350.32L409.18,350.32z"/>
				</g>
				<g>
					<path class="st0" d="M442.98,91.23c1.09-1,5.13-2.94,3.94,0.21c0,0-0.27-0.34-0.27-0.34c1.83-0.29,3.97-0.98,5.72,0
						c-1.9-0.58-3.75,0.2-5.64,0.49c0,0-0.44,0.07-0.44,0.07c0.16-0.37,0.53-1.19,0.3-1.43C445.5,89.89,444.05,90.79,442.98,91.23
						L442.98,91.23z"/>
				</g>
				<g>
					<path class="st0" d="M437.34,266.03c-3.04,12.77-3.08,25.97-2.35,39.01c0,0,0.45,9.8,0.45,9.8c-0.03,3.41,2.24,5.91,4.45,8.25
						c3.33,3.58,7.02,6.89,10.32,10.48c2.5,2.96,6.09,0.12,8.44-1.62c2.63-1.97,4.86-4.4,7.61-6.22c4.83-2.96,8.15-4.47,8.45-10.74
						c0.31-3.23,0.1-6.5,0.03-9.77c-0.16-6.57,0.72-13.09,1.01-19.63c0.45-6.5-0.08-13.1,1.09-19.63l0.44,0.4
						c-2.87,0.73-5.82,0.98-8.76,0.99c-5.86-0.02-11.66-0.79-17.45-1.65c-2.88-0.54-5.68-1.4-8.6-1.57l0-0.07
						c2.93,0.09,5.78,0.88,8.65,1.34c5.75,0.74,11.58,1.46,17.39,1.38c3.08-0.05,6.16-0.38,9.1-1.23c0,0-0.09,0.54-0.09,0.54
						c-1.05,6.41-0.58,13-0.99,19.55c-0.28,6.53-1.24,13.05-1.11,19.57c0.06,3.26,0.21,6.56-0.15,9.85
						c-0.42,6.46-3.8,8.02-8.81,11.01c-2.73,1.76-5.01,4.2-7.64,6.13c-2.44,1.79-6.19,4.6-8.79,1.58
						c-3.38-3.59-7.06-6.8-10.47-10.37c-2.28-2.33-4.73-5.03-4.73-8.51c0,0-0.51-9.81-0.51-9.81
						C433.8,292.09,433.69,278.47,437.34,266.03L437.34,266.03z"/>
				</g>
				<g>
					<path class="st0" d="M476.01,277.49c-5.88-0.08-11.8,0.04-17.69-0.57c-5.91-0.57-11.58-2.34-17.46-2.84
						c5.9,0.33,11.64,1.95,17.5,2.34c5.86,0.44,11.75,0.15,17.65,0.06V277.49L476.01,277.49z"/>
				</g>
			</g>
		</g>
	</g>
</g>
</svg>
